<svg width="360" height="105" viewBox="0 0 360 105" fill="none" xmlns="http://www.w3.org/2000/svg">
<path d="M16 0H314L296 88H0L16 0Z" fill="#0C43FF"/>
<path d="M22.3353 61V22.4545H46.238V27.4609H28.151V39.2053H44.5253V44.1928H28.151V61H22.3353ZM52.576 61V32.0909H58.0153V36.6832H58.3164C58.8434 35.1274 59.7719 33.904 61.1019 33.0131C62.4445 32.1097 63.9627 31.658 65.6566 31.658C66.0079 31.658 66.422 31.6706 66.8988 31.6957C67.3881 31.7208 67.7708 31.7521 68.0469 31.7898V37.1726C67.821 37.1098 67.4195 37.0408 66.8423 36.9656C66.2652 36.8777 65.688 36.8338 65.1108 36.8338C63.7808 36.8338 62.5951 37.1161 61.5536 37.6808C60.5247 38.2328 59.7092 39.0045 59.1069 39.9957C58.5046 40.9744 58.2035 42.0911 58.2035 43.3459V61H52.576ZM84.3412 61.5835C81.4929 61.5835 79.0399 60.9749 76.9822 59.7578C74.9369 58.5282 73.356 56.8029 72.2393 54.582C71.1351 52.3486 70.583 49.7325 70.583 46.7337C70.583 43.7725 71.1351 41.1626 72.2393 38.9041C73.356 36.6456 74.9118 34.8827 76.9069 33.6154C78.9144 32.3481 81.2608 31.7145 83.9459 31.7145C85.5771 31.7145 87.1581 31.9843 88.6888 32.5238C90.2196 33.0633 91.5935 33.9103 92.8106 35.0646C94.0277 36.219 94.9876 37.7184 95.6903 39.5629C96.3929 41.3948 96.7442 43.6219 96.7442 46.2443V48.2393H73.7638V44.0234H91.2297C91.2297 42.5429 90.9285 41.2317 90.3263 40.0898C89.724 38.9355 88.877 38.0258 87.7854 37.3608C86.7064 36.6958 85.4391 36.3633 83.9836 36.3633C82.4026 36.3633 81.0224 36.7522 79.843 37.5302C78.676 38.2956 77.7726 39.2994 77.1327 40.5415C76.5054 41.7712 76.1917 43.1075 76.1917 44.5504V47.8441C76.1917 49.7764 76.5305 51.4201 77.208 52.7752C77.8981 54.1303 78.858 55.1655 80.0876 55.8807C81.3173 56.5833 82.7539 56.9347 84.3976 56.9347C85.4642 56.9347 86.4366 56.7841 87.3149 56.483C88.1932 56.1693 88.9523 55.705 89.5922 55.0902C90.2322 54.4754 90.7215 53.7163 91.0603 52.8129L96.3866 53.7727C95.96 55.3411 95.1946 56.7151 94.0905 57.8945C92.9988 59.0614 91.6249 59.9711 89.9687 60.6236C88.325 61.2635 86.4491 61.5835 84.3412 61.5835ZM102.988 61V32.0909H108.616V61H102.988ZM105.83 27.6303C104.851 27.6303 104.011 27.3041 103.308 26.6516C102.618 25.9866 102.273 25.1961 102.273 24.2802C102.273 23.3517 102.618 22.5612 103.308 21.9087C104.011 21.2437 104.851 20.9112 105.83 20.9112C106.809 20.9112 107.643 21.2437 108.333 21.9087C109.036 22.5612 109.387 23.3517 109.387 24.2802C109.387 25.1961 109.036 25.9866 108.333 26.6516C107.643 27.3041 106.809 27.6303 105.83 27.6303ZM128.307 72.4432C126.011 72.4432 124.035 72.142 122.378 71.5398C120.735 70.9375 119.392 70.1407 118.351 69.1495C117.309 68.1583 116.531 67.0729 116.017 65.8935L120.854 63.8984C121.193 64.4505 121.644 65.034 122.209 65.6488C122.786 66.2762 123.564 66.8094 124.543 67.2486C125.534 67.6877 126.808 67.9073 128.364 67.9073C130.497 67.9073 132.259 67.3866 133.652 66.3452C135.045 65.3163 135.741 63.6726 135.741 61.4141V55.7301H135.384C135.045 56.3449 134.556 57.0288 133.916 57.7816C133.288 58.5344 132.423 59.1869 131.318 59.739C130.214 60.2911 128.778 60.5671 127.008 60.5671C124.725 60.5671 122.667 60.0339 120.835 58.9673C119.016 57.8883 117.573 56.301 116.506 54.2056C115.452 52.0977 114.925 49.5066 114.925 46.4325C114.925 43.3584 115.446 40.7235 116.487 38.5277C117.541 36.3319 118.984 34.6506 120.816 33.4837C122.648 32.3042 124.725 31.7145 127.046 31.7145C128.84 31.7145 130.29 32.0156 131.394 32.6179C132.498 33.2076 133.357 33.8977 133.972 34.6882C134.6 35.4787 135.083 36.1751 135.421 36.7773H135.835V32.0909H141.35V61.6399C141.35 64.1243 140.773 66.1632 139.619 67.7567C138.464 69.3503 136.902 70.5297 134.932 71.2951C132.975 72.0605 130.766 72.4432 128.307 72.4432ZM128.251 55.8995C129.869 55.8995 131.237 55.5231 132.354 54.7702C133.483 54.0049 134.336 52.9132 134.913 51.4954C135.503 50.065 135.798 48.3523 135.798 46.3572C135.798 44.4124 135.509 42.6997 134.932 41.2191C134.355 39.7385 133.508 38.5842 132.391 37.756C131.275 36.9154 129.894 36.495 128.251 36.495C126.557 36.495 125.145 36.9342 124.016 37.8125C122.887 38.6783 122.033 39.8577 121.456 41.3509C120.892 42.844 120.609 44.5128 120.609 46.3572C120.609 48.2519 120.898 49.9144 121.475 51.3448C122.052 52.7752 122.905 53.8919 124.035 54.695C125.177 55.498 126.582 55.8995 128.251 55.8995ZM154.525 43.8352V61H148.897V22.4545H154.449V36.7962H154.807C155.485 35.2403 156.52 34.0044 157.913 33.0884C159.305 32.1725 161.125 31.7145 163.371 31.7145C165.353 31.7145 167.085 32.1223 168.565 32.9379C170.058 33.7534 171.213 34.9705 172.028 36.5891C172.856 38.1952 173.271 40.2028 173.271 42.6119V61H167.643V43.2894C167.643 41.1689 167.097 39.5252 166.006 38.3583C164.914 37.1789 163.396 36.5891 161.451 36.5891C160.121 36.5891 158.929 36.8714 157.875 37.4361C156.833 38.0007 156.012 38.8288 155.409 39.9205C154.82 40.9995 154.525 42.3045 154.525 43.8352ZM194.275 32.0909V36.608H178.484V32.0909H194.275ZM182.719 25.1648H188.346V52.5117C188.346 53.6033 188.509 54.4252 188.835 54.9773C189.162 55.5168 189.582 55.887 190.097 56.0877C190.623 56.2759 191.194 56.37 191.809 56.37C192.261 56.37 192.656 56.3387 192.995 56.2759C193.334 56.2132 193.597 56.163 193.785 56.1254L194.802 60.7741C194.476 60.8996 194.011 61.0251 193.409 61.1506C192.807 61.2886 192.054 61.3639 191.15 61.3764C189.67 61.4015 188.29 61.138 187.01 60.5859C185.73 60.0339 184.695 59.1806 183.904 58.0263C183.114 56.8719 182.719 55.4227 182.719 53.6786V25.1648ZM216.549 42.2731V47.1477H199.46V42.2731H216.549ZM224.501 61V22.4545H248.668V27.4609H230.317V39.2053H247.407V44.1928H230.317V55.9936H248.893V61H224.501ZM282.522 34.6317C282.158 33.4899 281.669 32.4673 281.054 31.5639C280.452 30.648 279.73 29.87 278.889 29.2301C278.049 28.5777 277.089 28.082 276.01 27.7433C274.943 27.4045 273.77 27.2351 272.49 27.2351C270.32 27.2351 268.362 27.7934 266.618 28.9102C264.874 30.0269 263.494 31.6643 262.477 33.8224C261.474 35.968 260.972 38.5967 260.972 41.7085C260.972 44.8327 261.48 47.474 262.496 49.6321C263.513 51.7902 264.905 53.4277 266.675 54.5444C268.444 55.6611 270.458 56.2195 272.716 56.2195C274.811 56.2195 276.637 55.7929 278.193 54.9396C279.761 54.0864 280.972 52.8819 281.825 51.326C282.691 49.7576 283.124 47.9131 283.124 45.7926L284.63 46.0749H273.601V41.2756H288.752V45.6609C288.752 48.8981 288.061 51.7087 286.681 54.0927C285.314 56.4641 283.419 58.296 280.997 59.5884C278.588 60.8808 275.828 61.527 272.716 61.527C269.228 61.527 266.166 60.724 263.531 59.1179C260.909 57.5118 258.864 55.2345 257.396 52.2859C255.928 49.3247 255.194 45.8114 255.194 41.7461C255.194 38.672 255.62 35.9116 256.474 33.4648C257.327 31.0181 258.525 28.9415 260.068 27.2351C261.624 25.5161 263.45 24.2049 265.545 23.3015C267.653 22.3855 269.956 21.9276 272.453 21.9276C274.535 21.9276 276.474 22.235 278.268 22.8498C280.075 23.4646 281.681 24.3366 283.086 25.4659C284.504 26.5952 285.677 27.9377 286.606 29.4936C287.535 31.0369 288.162 32.7496 288.488 34.6317H282.522Z" fill="white"/>
<path d="M315 16.5H324.5L333 48.5L359.5 56.5L356 88H301.5L315 16.5Z" fill="#0C43FF"/>
<circle cx="48" cy="99" r="6" fill="#0C43FF"/>
<circle cx="65" cy="99" r="6" fill="#0C43FF"/>
<circle cx="270" cy="99" r="6" fill="#0C43FF"/>
<circle cx="316" cy="99" r="6" fill="#0C43FF"/>
<circle cx="333" cy="99" r="6" fill="#0C43FF"/>
<path d="M318.5 24.5H321.5L327 50.5L316.5 48L318.5 24.5Z" fill="#F9EAEA"/>
</svg>
